# AST/ASF file generated using VICON BodyLanguage
# -----------------------------------------------
:version 1.10
:name VICON
:units
  mass 1.0
  length 0.45
  angle deg
:documentation
   .ast/.asf automatically generated from VICON data using
   VICON BodyBuilder and BodyLanguage model FoxedUp or BRILLIANT.MOD
:root
   order TX TY TZ RX RY RZ
   axis XYZ
   position 0 0 0  
   orientation 0 0 0 
:bonedata
  begin
     id 1 
     name lhipjoint
     direction 0.690799 -0.707083 0.151096 
     length 2.54797 
     axis 0 0 0  XYZ
  end
  begin
     id 2 
     name lfemur
     direction 0.34202 -0.939693 0  
     length 7.21646  
     axis 0 0 20  XYZ
    dof rx ry rz
    limits (-160.0 20.0)
           (-70.0 70.0)
           (-60.0 70.0)
  end
  begin
     id 3 
     name ltibia
     direction 0.34202 -0.939693 0   
     length 8.16759   
     axis 0 0 20   XYZ
    dof rx
    limits (-10.0 170.0)
  end
  begin
     id 4 
     name lfoot
     direction 0.0487203 -0.133858 0.989802   
     length 1.93375   
     axis -90 7.62852e-016 20   XYZ
    dof rx rz
    limits (-45.0 90.0)
           (-70.0 20.0)
  end
  begin
     id 5 
     name ltoes
     direction 1.53453e-011 -4.21783e-011 1   
     length 0.979747   
     axis -90 7.62852e-016 20   XYZ
    dof rx
    limits (-90.0 20.0)
  end
  begin
     id 6 
     name rhipjoint
     direction -0.694693 -0.703425 0.150315   
     length 2.56122  
     axis 0 0 0  XYZ 
  end
  begin
     id 7 
     name rfemur
     direction -0.34202 -0.939693 0   
     length 7.36786   
     axis 0 0 -20   XYZ
    dof rx ry rz
    limits (-160.0 20.0)
           (-70.0 70.0)
           (-70.0 60.0)
  end
  begin
     id 8 
     name rtibia
     direction -0.34202 -0.939693 0   
     length 8.07288   
     axis 0 0 -20   XYZ
    dof rx
    limits (-10.0 170.0)
 end
 begin
     id 9 
     name rfoot
     direction -0.0428397 -0.117701 0.992125   
     length 1.88295  
     axis -90 -7.62852e-016 -20   XYZ
    dof rx rz
    limits (-45.0 90.0)
           (-20.0 70.0)
  end
  begin
     id 10 
     name rtoes
     direction -1.53456e-011 -4.2187e-011 1   
     length 0.955578   
     axis -90 -7.62852e-016 -20   XYZ
    dof rx
    limits (-90.0 20.0)
  end
  begin
     id 11 
     name lowerback
     direction 0.0288145 0.999398 -0.0193241   
     length 1.92149   
     axis 0 0 0   XYZ
    dof rx ry rz
    limits (-20.0 45.0)
           (-30.0 30.0)
           (-30.0 30.0)
  end
  begin
     id 12 
     name upperback
     direction 0.0233784 0.998099 0.0570278   
     length 1.90435   
     axis 0 0 0   XYZ
    dof rx ry rz
    limits (-20.0 45.0)
           (-30.0 30.0)
           (-30.0 30.0)
  end
  begin
     id 13 
     name thorax
     direction 0.0096694 0.997833 0.0650817   
     length 1.9111   
     axis 0 0 0   XYZ
    dof rx ry rz
    limits (-20.0 45.0)
           (-30.0 30.0)
           (-30.0 30.0)
  end
  begin
     id 14 
     name lowerneck
     direction 0.00516803 0.999916 0.0118722   
     length 1.74664   
     axis 0 0 0   XYZ
    dof rx ry rz
    limits (-20.0 45.0)
           (-30.0 30.0)
           (-30.0 30.0)
  end
  begin
     id 15 
     name upperneck
     direction -0.0510851 0.996117 -0.071696   
     length 1.68498   
     axis 0 0 0   XYZ
    dof rx ry rz
    limits (-20.0 45.0)
           (-30.0 30.0)
           (-30.0 30.0)
  end
  begin
     id 16
     name head
     direction -0.019188 0.999436 -0.0275702  
     length 1.83483  
     axis 0 0 0   XYZ
    dof rx ry rz
    limits (-20.0 45.0)
           (-30.0 30.0)
           (-30.0 30.0)
  end
  begin
     id 17 
     name lclavicle
     direction 0.967006 0.248456 -0.0562957  
     length 3.39395  
     axis 0 0 0   XYZ
    dof ry rz
    limits (-20.0 10.0)
           (0.0 20.0)
  end
  begin
     id 18 
     name lhumerus
     direction 1 -4.48962e-011 -5.62711e-019   
     length 5.24318   
     axis 180 -30 -90   XYZ
    dof rx ry rz
    limits (-60.0 90.0)
           (-90.0 90.0)
           (-90.0 90.0)
  end
  begin
     id 19
     name lradius
     direction 1 -4.48966e-011 7.90625e-027   
     length 2.98999   
     axis 180 -30 -90   XYZ
    dof rx
    limits (-10.0 170.0)
  end
  begin
     id 20
     name lwrist
     direction 1 -4.48959e-011 1.61068e-026   
     length 1.49499   
     axis -9.31229e-015 90 90   XYZ
    dof ry
    limits (-180.0 0.0)
 end
  begin
     id 21 
     name lhand
     direction 1 -4.49017e-011 3.22136e-026   
     length 0.726745   
     axis -2.0555e-014 90 90   XYZ
    dof rx rz
    limits (-90.0 90.0)
           (-45.0 45.0)
  end
  begin
     id 22 
     name lfingers
     direction 1 -4.4898e-011 6.44272e-026   
     length 0.58592   
     axis -4.11101e-014 90 90   XYZ
    dof rx
    limits (0.0 90.0)
  end
  begin
     id 23
     name lthumb
     direction 0.707107 -6.34922e-011 0.707107   
     length 0.841268   
     axis -90 45 2.85299e-015   XYZ
    dof rx rz
    limits (-45.0 45.0)
           (-45.0 45.0)
  end
  begin
     id 24 
     name rclavicle
     direction -0.972232 0.230238 0.0419005   
     length 3.40416  
     axis 0 0 0   XYZ 
    dof ry rz
    limits (-10.0 20.0)
           (-20.0 0.0)
  end
  begin
     id 25 
     name rhumerus
     direction -1 -4.48976e-011 2.48487e-027  
     length 5.37045   
     axis 180 30 90   XYZ
    dof rx ry rz
    limits (-90.0 60.0)
           (-90.0 90.0)
           (-90.0 90.0)
  end
  begin
     id 26 
     name rradius
     direction -1 -4.48942e-011 7.87951e-027   
     length 2.92792   
     axis 180 30 90   XYZ
    dof rx
    limits (-10.0 170.0)
  end
  begin
     id 27 
     name rwrist
     direction -1 -4.48969e-011 1.61068e-026   
     length 1.46396   
     axis -9.31229e-015 -90 -90   XYZ
    dof ry
    limits (-180.0 0.0)
  end
  begin
     id 28
     name rhand
     direction -1 -4.49043e-011 3.22136e-026   
     length 0.784497   
     axis -2.0555e-014 -90 -90   XYZ
    dof rx rz
    limits (-90.0 90.0)
           (-45.0 45.0)
  end
  begin
     id 29
     name rfingers
     direction -1 -4.48823e-011 6.44272e-026   
     length 0.632482   
     axis -4.11101e-014 -90 -90   XYZ
    dof rx
    limits (0.0 90.0)
  end
  begin
     id 30
     name rthumb
     direction -0.707107 -6.34923e-011 0.707107   
     length 0.908121   
     axis -90 -45 -2.85299e-015   XYZ
    dof rx rz
    limits (-45.0 45.0)
           (-45.0 45.0)
  end
:hierarchy
  begin
    root lhipjoint rhipjoint lowerback
    lhipjoint lfemur
    lfemur ltibia
    ltibia lfoot
    lfoot ltoes
    rhipjoint rfemur
    rfemur rtibia
    rtibia rfoot
    rfoot rtoes
    lowerback upperback
    upperback thorax
    thorax lowerneck lclavicle rclavicle
    lowerneck upperneck
    upperneck head
    lclavicle lhumerus
    lhumerus lradius
    lradius lwrist
    lwrist lhand lthumb
    lhand lfingers
    rclavicle rhumerus
    rhumerus rradius
    rradius rwrist
    rwrist rhand rthumb
    rhand rfingers
  end

#!OML:ASF E:\Style6\Style6.ASF
:FULLY-SPECIFIED
:DEGREES
1186
root 0.378834 18.1024 -0.39756 39.7883 4.78899 -2.12723
lowerback 16.2675 -0.923085 6.73082
upperback 1.39781 0.219957 2.70565
thorax -7.62763 -0.0670608 -0.957616
lowerneck 13.1911 3.7375 2.63966
upperneck -8.92828 6.62901 9.1243
head -5.10279 2.52242 1.87163
rclavicle 9.54166e-015 2.26615e-014
rhumerus 12.5902 13.3356 -87.3725
rradius 32.7851
rwrist 35.0676
rhand -9.1367 4.64512
rfingers 7.12502
rthumb 16.8148 -24.6468
lclavicle 9.54166e-015 2.26615e-014
lhumerus 16.3039 -28.2688 83.7766
lradius 28.4272
lwrist -14.7009
lhand -8.15869 21.9909
lfingers 7.12502
lthumb 17.7561 51.2003
rfemur -43.9527 12.8485 8.52627
rtibia 1.16885e-013
rfoot -5.22018 -34.0228
rtoes 25.0772
lfemur -65.1189 -39.3008 30.8382
ltibia 15.2718
lfoot -43.8709 46.7206
ltoes 41.3038
1187
root 0.379972 18.1017 -0.393006 39.8081 4.7195 -2.0704
lowerback 16.3419 -0.878943 6.68201
upperback 1.28823 0.276481 2.63057
thorax -7.78405 -0.0456341 -1.02183
lowerneck 13.1626 3.42009 2.84754
upperneck -9.83107 6.25658 8.55388
head -5.33951 2.33477 1.68934
rclavicle 1.19271e-014 1.39149e-014
rhumerus 12.4567 13.2568 -87.4476
rradius 32.7824
rwrist 35.1488
rhand -9.00721 4.58135
rfingers 7.12502
rthumb 16.9395 -24.6999
lclavicle 1.19271e-014 1.39149e-014
lhumerus 16.0882 -28.8447 83.5817
lradius 28.52
lwrist -14.71
lhand -8.13297 22.0126
lfingers 7.12502
lthumb 17.7809 51.2197
rfemur -43.9619 12.8487 8.42894
rtibia -3.69739e-014
rfoot -5.52805 -34.0007
rtoes 25.6871
lfemur -65.3651 -39.5508 31.218
ltibia 15.2095
lfoot -45.0181 46.5088
ltoes 42.0725
1188
root 0.382037 18.1006 -0.388064 39.825 4.65241 -2.00682
lowerback 16.3908 -0.801621 6.68469
upperback 1.16336 0.381109 2.51999
thorax -7.93926 -0.00395429 -1.16451
lowerneck 13.0294 3.05279 3.19797
upperneck -10.4669 5.79611 7.94385
head -5.47167 2.11774 1.48229
rclavicle -8.74653e-015 3.77691e-014
rhumerus 12.2862 12.9831 -87.556
rradius 32.7024
rwrist 35.3454
rhand -8.85678 4.52296
rfingers 7.12502
rthumb 17.0843 -24.7459
lclavicle -8.74653e-015 3.77691e-014
lhumerus 15.9449 -29.5225 83.39
lradius 28.4661
lwrist -14.9231
lhand -8.06218 21.7674
lfingers 7.12502
lthumb 17.849 50.9683
rfemur -43.9546 12.8459 8.33142
rtibia 5.80451e-014
rfoot -5.54539 -33.9758
rtoes 25.7883
lfemur -65.6995 -39.8501 31.6848
ltibia 15.1849
lfoot -46.2507 46.2481
ltoes 42.8474
1189
root 0.384607 18.0999 -0.384355 39.7989 4.68195 -2.04908
lowerback 16.427 -0.846917 6.70038
upperback 1.05242 0.341066 2.5917
thorax -8.08394 -0.028021 -1.08533
lowerneck 13.0858 2.86231 3.24015
upperneck -11.078 5.50638 7.23933
head -5.6401 2.001 1.27715
rclavicle 1.43125e-014 3.57812e-014
rhumerus 12.1479 13.1161 -87.6352
rradius 32.533
rwrist 35.6098
rhand -8.66308 4.56768
rfingers 7.12502
rthumb 17.2707 -24.6849
lclavicle 1.43125e-014 3.57812e-014
lhumerus 15.6462 -29.4598 83.475
lradius 28.2847
lwrist -15.4473
lhand -7.97449 21.3474
lfingers 7.12502
lthumb 17.9334 50.5405
rfemur -43.9016 12.8571 8.39785
rtibia 5.20816e-014
rfoot -5.50831 -33.9491
rtoes 25.5596
lfemur -65.7381 -39.9326 31.8301
ltibia 15.1554
lfoot -46.3181 46.3899
ltoes 42.7511
1190
root 0.387698 18.1009 -0.381479 39.8016 4.71321 -2.09259
lowerback 16.4207 -0.917936 6.69747
upperback 0.954229 0.262103 2.69571
thorax -8.19401 -0.068102 -0.95197
lowerneck 13.0787 2.71935 3.17193
upperneck -11.5873 5.24155 6.542
head -5.77156 1.9091 1.09054
rclavicle -1.19271e-015 2.3059e-014
rhumerus 12.0877 13.4299 -87.6529
rradius 32.345
rwrist 35.7894
rhand -8.46451 4.5097
rfingers 7.12502
rthumb 17.4618 -24.726
lclavicle -1.19271e-015 2.3059e-014
lhumerus 15.3155 -29.4071 83.5213
lradius 28.2354
lwrist -15.7496
lhand -7.84736 21.2629
lfingers 7.12502
lthumb 18.0557 50.4448
rfemur -43.8892 12.8569 8.45498
rtibia 5.76476e-014
rfoot -5.67481 -33.9416
rtoes 25.8618
lfemur -65.4431 -39.7169 31.433
ltibia 15.1079
lfoot -45.1107 46.8745
ltoes 41.7303
